<svg id="visual" viewBox="0 0 900 600" width="900" height="600" xmlns="http://www.w3.org/2000/svg" xmlns:xlink="http://www.w3.org/1999/xlink" version="1.1"><rect x="0" y="0" width="900" height="600" fill="#FFFFFF"></rect><defs><linearGradient id="grad1_0" x1="33.3%" y1="100%" x2="100%" y2="0%"><stop offset="20%" stop-color="#4338ca" stop-opacity="1"></stop><stop offset="80%" stop-color="#4338ca" stop-opacity="1"></stop></linearGradient></defs><defs><linearGradient id="grad1_1" x1="33.3%" y1="100%" x2="100%" y2="0%"><stop offset="20%" stop-color="#4338ca" stop-opacity="1"></stop><stop offset="80%" stop-color="#6e57d4" stop-opacity="1"></stop></linearGradient></defs><defs><linearGradient id="grad1_2" x1="33.3%" y1="100%" x2="100%" y2="0%"><stop offset="20%" stop-color="#8f77dd" stop-opacity="1"></stop><stop offset="80%" stop-color="#6e57d4" stop-opacity="1"></stop></linearGradient></defs><defs><linearGradient id="grad1_3" x1="33.3%" y1="100%" x2="100%" y2="0%"><stop offset="20%" stop-color="#8f77dd" stop-opacity="1"></stop><stop offset="80%" stop-color="#ad98e6" stop-opacity="1"></stop></linearGradient></defs><defs><linearGradient id="grad1_4" x1="33.3%" y1="100%" x2="100%" y2="0%"><stop offset="20%" stop-color="#cab9ef" stop-opacity="1"></stop><stop offset="80%" stop-color="#ad98e6" stop-opacity="1"></stop></linearGradient></defs><defs><linearGradient id="grad1_5" x1="33.3%" y1="100%" x2="100%" y2="0%"><stop offset="20%" stop-color="#cab9ef" stop-opacity="1"></stop><stop offset="80%" stop-color="#e5dcf7" stop-opacity="1"></stop></linearGradient></defs><defs><linearGradient id="grad1_6" x1="33.3%" y1="100%" x2="100%" y2="0%"><stop offset="20%" stop-color="#ffffff" stop-opacity="1"></stop><stop offset="80%" stop-color="#e5dcf7" stop-opacity="1"></stop></linearGradient></defs><defs><linearGradient id="grad2_0" x1="0%" y1="100%" x2="66.7%" y2="0%"><stop offset="20%" stop-color="#4338ca" stop-opacity="1"></stop><stop offset="80%" stop-color="#4338ca" stop-opacity="1"></stop></linearGradient></defs><defs><linearGradient id="grad2_1" x1="0%" y1="100%" x2="66.7%" y2="0%"><stop offset="20%" stop-color="#6e57d4" stop-opacity="1"></stop><stop offset="80%" stop-color="#4338ca" stop-opacity="1"></stop></linearGradient></defs><defs><linearGradient id="grad2_2" x1="0%" y1="100%" x2="66.7%" y2="0%"><stop offset="20%" stop-color="#6e57d4" stop-opacity="1"></stop><stop offset="80%" stop-color="#8f77dd" stop-opacity="1"></stop></linearGradient></defs><defs><linearGradient id="grad2_3" x1="0%" y1="100%" x2="66.7%" y2="0%"><stop offset="20%" stop-color="#ad98e6" stop-opacity="1"></stop><stop offset="80%" stop-color="#8f77dd" stop-opacity="1"></stop></linearGradient></defs><defs><linearGradient id="grad2_4" x1="0%" y1="100%" x2="66.7%" y2="0%"><stop offset="20%" stop-color="#ad98e6" stop-opacity="1"></stop><stop offset="80%" stop-color="#cab9ef" stop-opacity="1"></stop></linearGradient></defs><defs><linearGradient id="grad2_5" x1="0%" y1="100%" x2="66.7%" y2="0%"><stop offset="20%" stop-color="#e5dcf7" stop-opacity="1"></stop><stop offset="80%" stop-color="#cab9ef" stop-opacity="1"></stop></linearGradient></defs><defs><linearGradient id="grad2_6" x1="0%" y1="100%" x2="66.7%" y2="0%"><stop offset="20%" stop-color="#e5dcf7" stop-opacity="1"></stop><stop offset="80%" stop-color="#ffffff" stop-opacity="1"></stop></linearGradient></defs><g transform="translate(900, 600)"><path d="M-459.7 0C-441.4 -44 -423.1 -88 -409.9 -133.2C-396.7 -178.4 -388.7 -224.7 -367.3 -266.9C-345.8 -309 -310.9 -346.9 -270.2 -371.9C-229.5 -396.9 -182.9 -408.8 -136.9 -421.3C-90.9 -433.8 -45.4 -446.7 0 -459.7L0 0Z" fill="#f2edfb"></path><path d="M-394 0C-378.3 -37.7 -362.6 -75.4 -351.3 -114.2C-340.1 -152.9 -333.2 -192.6 -314.8 -228.7C-296.4 -264.9 -266.5 -297.4 -231.6 -318.8C-196.7 -340.2 -156.8 -350.4 -117.3 -361.1C-77.9 -371.8 -39 -382.9 0 -394L0 0Z" fill="#d7caf3"></path><path d="M-328.4 0C-315.3 -31.4 -302.2 -62.9 -292.8 -95.1C-283.4 -127.4 -277.7 -160.5 -262.4 -190.6C-247 -220.7 -222.1 -247.8 -193 -265.7C-163.9 -283.5 -130.6 -292 -97.8 -300.9C-64.9 -309.8 -32.5 -319.1 0 -328.4L0 0Z" fill="#bca8eb"></path><path d="M-262.7 0C-252.2 -25.1 -241.8 -50.3 -234.2 -76.1C-226.7 -101.9 -222.1 -128.4 -209.9 -152.5C-197.6 -176.6 -177.7 -198.3 -154.4 -212.5C-131.1 -226.8 -104.5 -233.6 -78.2 -240.8C-51.9 -247.9 -26 -255.3 0 -262.7L0 0Z" fill="#9e87e2"></path><path d="M-197 0C-189.2 -18.9 -181.3 -37.7 -175.7 -57.1C-170 -76.4 -166.6 -96.3 -157.4 -114.4C-148.2 -132.4 -133.3 -148.7 -115.8 -159.4C-98.3 -170.1 -78.4 -175.2 -58.7 -180.6C-39 -185.9 -19.5 -191.5 0 -197L0 0Z" fill="#7f67d9"></path><path d="M-131.3 0C-126.1 -12.6 -120.9 -25.1 -117.1 -38.1C-113.4 -51 -111.1 -64.2 -104.9 -76.2C-98.8 -88.3 -88.8 -99.1 -77.2 -106.3C-65.6 -113.4 -52.3 -116.8 -39.1 -120.4C-26 -123.9 -13 -127.6 0 -131.3L0 0Z" fill="#5a48cf"></path><path d="M-65.7 0C-63.1 -6.3 -60.4 -12.6 -58.6 -19C-56.7 -25.5 -55.5 -32.1 -52.5 -38.1C-49.4 -44.1 -44.4 -49.6 -38.6 -53.1C-32.8 -56.7 -26.1 -58.4 -19.6 -60.2C-13 -62 -6.5 -63.8 0 -65.7L0 0Z" fill="#4338ca"></path></g><g transform="translate(0, 0)"><path d="M459.7 0C430.4 40.6 401 81.3 389.9 126.7C378.8 172.1 386 222.3 370.5 269.2C355 316.1 316.9 359.6 270.2 371.9C223.5 384.2 168.2 365.3 121.8 374.7C75.3 384.1 37.6 421.9 0 459.7L0 0Z" fill="#f2edfb"></path><path d="M394 0C368.9 34.8 343.7 69.7 334.2 108.6C324.7 147.5 330.9 190.6 317.6 230.7C304.3 270.9 271.6 308.2 231.6 318.8C191.6 329.3 144.2 313.1 104.4 321.2C64.5 329.3 32.3 361.7 0 394L0 0Z" fill="#d7caf3"></path><path d="M328.4 0C307.4 29 286.4 58.1 278.5 90.5C270.6 122.9 275.7 158.8 264.7 192.3C253.6 225.8 226.4 256.9 193 265.7C159.6 274.4 120.2 260.9 87 267.7C53.8 274.4 26.9 301.4 0 328.4L0 0Z" fill="#bca8eb"></path><path d="M262.7 0C245.9 23.2 229.2 46.4 222.8 72.4C216.5 98.4 220.6 127 211.7 153.8C202.9 180.6 181.1 205.5 154.4 212.5C127.7 219.6 96.1 208.7 69.6 214.1C43 219.5 21.5 241.1 0 262.7L0 0Z" fill="#9e87e2"></path><path d="M197 0C184.4 17.4 171.9 34.8 167.1 54.3C162.4 73.8 165.4 95.3 158.8 115.4C152.2 135.5 135.8 154.1 115.8 159.4C95.8 164.7 72.1 156.6 52.2 160.6C32.3 164.6 16.1 180.8 0 197L0 0Z" fill="#7f67d9"></path><path d="M131.3 0C123 11.6 114.6 23.2 111.4 36.2C108.2 49.2 110.3 63.5 105.9 76.9C101.4 90.3 90.5 102.7 77.2 106.3C63.9 109.8 48.1 104.4 34.8 107.1C21.5 109.8 10.8 120.6 0 131.3L0 0Z" fill="#5a48cf"></path><path d="M65.7 0C61.5 5.8 57.3 11.6 55.7 18.1C54.1 24.6 55.1 31.8 52.9 38.5C50.7 45.2 45.3 51.4 38.6 53.1C31.9 54.9 24 52.2 17.4 53.5C10.8 54.9 5.4 60.3 0 65.7L0 0Z" fill="#4338ca"></path></g></svg>